<svg version="1.1" viewBox="0 0 172 172" xmlns="http://www.w3.org/2000/svg"><g fill="none" font-family="none" font-size="none" font-weight="none" stroke-dasharray="" stroke-miterlimit="10" text-anchor="none" style="mix-blend-mode: normal"><path d="m0 172v-172h172v172z" fill="none" /><path d="m38.055 149.42c-15.695 0-28.38-12.685-28.38-28.38v-70.09c0-15.695 12.685-28.38 28.38-28.38h95.675c15.695 0 28.38 12.685 28.38 28.38v69.875c0 15.695-12.685 28.38-28.38 28.38l-95.675 0.215z" fill="#f0c808"/><path d="m133.94 23.65c15.05 0 27.305 12.255 27.305 27.305v69.875c0 15.05-12.255 27.305-27.305 27.305h-95.89c-15.05 0.215-27.305-12.04-27.305-27.09v-70.09c0-15.05 12.255-27.305 27.305-27.305h95.89m0-2.15h-95.89c-16.125 0-29.455 13.33-29.455 29.455v69.875c0 16.34 13.33 29.67 29.455 29.67h95.675c16.34 0 29.67-13.33 29.67-29.455v-70.09c0-16.125-13.33-29.455-29.455-29.455z" fill="#000"/><path d="m123.62 150.5c-13.545 0-24.725-11.18-24.725-24.725s11.18-24.725 24.725-24.725h39.775v2.15h-39.775c-12.47 0-22.575 10.105-22.575 22.575s10.105 22.575 22.575 22.575zm39.775-79.55h-48.375c-8.815 0-16.125-7.31-16.125-16.125s7.31-16.125 16.125-16.125h8.815v2.15h-8.815c-7.74 0-13.975 6.235-13.975 13.975s6.235 13.975 13.975 13.975h48.375z" fill="#000"/><path d="m122.55 70.95h2.15v32.035h-2.15zm-74.175 79.55v-2.15c12.47 0 22.575-10.105 22.575-22.575s-10.105-22.575-22.575-22.575h-39.775v-2.15h39.775c13.545 0 24.725 11.18 24.725 24.725s-11.18 24.725-24.725 24.725zm8.6-79.55h-48.375v-2.15h48.375c7.74 0 13.975-6.235 13.975-13.975s-6.235-13.975-13.975-13.975h-8.815v-2.15h8.815c8.815 0 16.125 7.31 16.125 16.125s-7.31 16.125-16.125 16.125z" fill="#000"/><path d="m47.3 70.95h2.15v32.035h-2.15z" fill="#000" /></g></svg>